<svg width="39" height="38" viewBox="0 0 39 38" fill="none" xmlns="http://www.w3.org/2000/svg">
<g clip-path="url(#clip0_1179_905)">
<path d="M34.625 3C37.0381 3 39 4.96191 39 7.375V27.0625C39 29.4756 37.0381 31.4375 34.625 31.4375H28.0625V36.9062C28.0625 37.3232 27.8301 37.6992 27.4609 37.8838C27.0918 38.0684 26.6475 38.0273 26.3125 37.7812L17.8564 31.4375H8.375C5.96191 31.4375 4 29.4756 4 27.0625V7.375C4 4.96191 5.96191 3 8.375 3H34.625Z" fill="#37085B"/>
<path d="M31 13.2224C31 12.058 30.0533 11.1113 28.8889 11.1113H20.4444C19.28 11.1113 18.3333 12.058 18.3333 13.2224V21.6669C18.3333 22.8313 19.28 23.778 20.4444 23.778H28.8889C30.0533 23.778 31 22.8313 31 21.6669V13.2224ZM12.5575 12.2922C12.2144 12.477 12 12.8332 12 13.2224V21.6669C12 22.0561 12.2144 22.4124 12.5575 22.5971C12.9005 22.7818 13.3161 22.762 13.6427 22.5443L16.8094 20.4332L17.2778 20.1198V19.5558V15.3336V14.7695L16.8094 14.4561L13.6427 12.345C13.3194 12.1306 12.9038 12.1075 12.5575 12.2922Z" fill="black"/>
</g>
<g clip-path="url(#clip1_1179_905)">
<path d="M4.375 0C1.96191 0 0 1.96191 0 4.375V24.0625C0 26.4756 1.96191 28.4375 4.375 28.4375H10.9375V33.9062C10.9375 34.3232 11.1699 34.6992 11.5391 34.8838C11.9082 35.0684 12.3525 35.0273 12.6875 34.7812L21.1436 28.4375H30.625C33.0381 28.4375 35 26.4756 35 24.0625V4.375C35 1.96191 33.0381 0 30.625 0H4.375Z" fill="white"/>
<path d="M8 10.2224C8 9.05803 8.9467 8.11133 10.1111 8.11133H18.5556C19.72 8.11133 20.6667 9.05803 20.6667 10.2224V18.6669C20.6667 19.8313 19.72 20.778 18.5556 20.778H10.1111C8.9467 20.778 8 19.8313 8 18.6669V10.2224ZM26.4425 9.29223C26.7856 9.47695 27 9.8332 27 10.2224V18.6669C27 19.0561 26.7856 19.4124 26.4425 19.5971C26.0995 19.7818 25.6839 19.762 25.3573 19.5443L22.1906 17.4332L21.7222 17.1198V16.5558V12.3336V11.7695L22.1906 11.4561L25.3573 9.34501C25.6806 9.1306 26.0962 9.10751 26.4425 9.29223Z" fill="#37085B"/>
</g>
<defs>
<clipPath id="clip0_1179_905">
<rect width="35" height="35" fill="white" transform="matrix(-1 0 0 1 39 3)"/>
</clipPath>
<clipPath id="clip1_1179_905">
<rect width="35" height="35" fill="white"/>
</clipPath>
</defs>
</svg>
